<?xml version="1.0" standalone="no"?>
<!DOCTYPE svg PUBLIC "-//W3C//DTD SVG 20010904//EN"
 "http://www.w3.org/TR/2001/REC-SVG-20010904/DTD/svg10.dtd">
<svg version="1.0" xmlns="http://www.w3.org/2000/svg"
 width="2561.000000pt" height="1553.000000pt" viewBox="0 0 2561.000000 1553.000000"
 preserveAspectRatio="xMidYMid meet">

<g transform="translate(0.000000,1553.000000) scale(0.100000,-0.100000)"
fill="white" stroke="none">
<path d="M6995 14140 c-1172 -36 -2295 -306 -3270 -785 -890 -437 -1485 -947
-1968 -1685 -568 -870 -915 -2032 -1031 -3460 -140 -1706 -14 -3543 355 -5210
165 -745 397 -1527 525 -1771 104 -197 338 -293 860 -354 303 -35 858 -35
1139 0 455 56 881 206 984 346 25 34 37 93 27 133 -22 89 -196 202 -529 345
-176 76 -204 94 -234 146 -28 50 -29 97 -3 275 45 323 119 608 275 1070 163
480 353 920 510 1180 119 196 247 345 335 390 l37 19 49 -33 c86 -59 88 -63
139 -286 57 -254 146 -609 186 -749 189 -658 301 -914 592 -1354 213 -323 353
-495 588 -721 230 -222 332 -283 534 -320 622 -115 1351 -123 1863 -20 272 54
441 129 517 228 106 140 -6 290 -340 451 -119 58 -361 156 -490 199 -95 31
-164 72 -198 118 -68 89 -191 627 -241 1053 -9 72 -21 211 -27 311 -17 281 -7
402 102 1214 10 80 22 219 26 311 l6 165 96 -13 c648 -86 1423 -119 2167 -94
192 6 361 14 377 17 l27 6 0 -529 c0 -291 5 -600 10 -688 20 -310 61 -544 125
-720 41 -113 620 -1321 757 -1579 213 -401 342 -605 418 -661 108 -79 268
-143 425 -169 428 -73 637 -91 1030 -91 375 0 511 13 819 76 304 62 386 99
515 235 l89 94 130 0 c212 0 436 28 572 72 242 77 378 258 303 403 -49 94
-168 170 -383 247 -186 66 -439 135 -602 162 l-37 7 120 352 c67 194 151 442
189 552 337 990 612 1637 985 2320 303 553 554 1279 659 1910 30 177 56 410
56 493 0 49 5 66 28 98 136 186 385 375 697 529 276 136 489 211 940 331 304
81 500 137 955 274 162 49 338 100 390 114 106 28 354 61 820 107 l315 32 645
-17 c725 -19 1077 -20 1290 -6 253 17 314 27 440 77 240 94 435 216 583 364
93 93 118 129 80 114 -46 -17 -132 -35 -225 -46 -216 -25 -762 40 -808 96 -28
34 2 40 235 43 232 4 372 -6 685 -49 139 -20 145 -20 158 -2 20 26 48 93 57
133 27 134 122 463 151 524 42 88 53 160 31 202 -35 66 -157 163 -390 310
-133 84 -592 431 -1142 863 -313 246 -370 295 -550 476 -246 248 -523 486
-665 573 -202 121 -968 409 -1416 531 -334 92 -344 93 -618 98 -137 3 -346 0
-465 -6 -558 -30 -1505 -108 -2201 -182 -157 -17 -386 -39 -510 -49 -124 -11
-326 -29 -450 -41 -196 -19 -238 -20 -325 -10 -138 17 -298 57 -592 150 -311
99 -367 113 -587 151 -336 56 -436 65 -766 65 -325 0 -373 -4 -635 -56 -185
-36 -785 -186 -1075 -269 -452 -129 -764 -171 -1265 -171 -547 1 -1003 62
-1504 202 -217 62 -276 98 -226 139 13 11 44 9 168 -8 307 -43 365 -47 742
-47 372 0 472 7 740 49 l80 12 -125 46 c-318 116 -804 264 -1176 357 -893 223
-1771 318 -2679 291z m12997 -1228 c6 -6 -44 -53 -134 -128 -170 -141 -287
-257 -311 -306 -22 -47 -21 -95 3 -167 24 -72 41 -103 146 -256 92 -135 114
-175 114 -205 0 -23 -33 -60 -54 -60 -25 0 -134 109 -184 185 -103 153 -157
351 -135 500 16 116 59 193 162 295 85 85 134 117 221 145 48 16 155 14 172
-3z m-16504 -705 c3 -12 -43 -63 -146 -162 -592 -571 -1060 -1317 -1485 -2370
-396 -978 -657 -1761 -850 -2545 -108 -437 -98 -412 -92 -215 17 546 98 1286
180 1630 58 246 181 610 308 915 92 220 354 784 428 920 166 305 385 611 672
940 259 296 913 915 960 908 12 -2 23 -11 25 -21z m19324 -432 c26 -9 67 -35
92 -57 39 -34 46 -45 46 -77 0 -46 -22 -78 -58 -85 -80 -17 -266 54 -358 137
-43 39 -46 45 -35 65 7 13 22 27 34 33 34 14 225 4 279 -16z m-3507 -2450 c0
-47 -204 -124 -479 -180 -221 -46 -298 -66 -442 -116 -248 -85 -497 -226 -674
-381 -110 -97 -198 -190 -394 -418 -199 -231 -401 -433 -529 -529 -77 -58
-146 -96 -315 -176 -424 -199 -458 -219 -553 -323 -78 -85 -160 -216 -254
-407 -93 -191 -136 -299 -272 -695 -133 -387 -186 -522 -346 -875 -300 -666
-386 -873 -481 -1164 -130 -394 -224 -871 -306 -1546 -17 -137 -37 -302 -45
-365 -14 -111 -19 -195 -16 -271 1 -34 9 -42 147 -148 80 -62 143 -115 141
-117 -2 -2 -66 9 -143 25 -76 16 -196 37 -266 47 l-128 17 5 36 c3 20 23 272
45 561 62 806 100 1189 141 1400 52 272 122 500 326 1060 85 234 221 625 303
870 195 590 314 888 470 1187 159 302 355 585 517 748 112 112 336 244 873
515 151 76 307 161 345 188 91 64 208 165 425 366 435 402 533 473 763 555
203 71 339 95 698 121 152 11 303 24 335 29 86 13 109 10 109 -14z m-15417
-1293 c9 -9 65 -87 124 -172 332 -481 708 -848 1202 -1174 562 -371 1271 -662
1851 -760 279 -46 349 -51 765 -51 580 1 836 30 1970 230 588 103 1143 185
1157 171 9 -9 -385 -196 -557 -264 -608 -241 -1238 -386 -1975 -454 -185 -17
-984 -17 -1150 0 -263 28 -512 102 -900 269 -1122 484 -1897 1119 -2461 2018
-48 77 -89 147 -91 156 -5 16 21 49 38 49 5 0 17 -8 27 -18z m-578 -4457 c37
-222 90 -932 90 -1208 0 -146 13 -286 33 -343 18 -54 50 -73 156 -90 104 -17
130 -28 210 -88 l55 -41 -90 -7 c-49 -4 -170 -19 -269 -33 -240 -33 -239 -33
-285 13 -78 78 -104 243 -97 617 8 366 48 737 129 1178 36 200 35 200 68 2z"/>
</g>
</svg>
