<?xml version="1.0" standalone="no"?>
<!DOCTYPE svg PUBLIC "-//W3C//DTD SVG 20010904//EN"
 "http://www.w3.org/TR/2001/REC-SVG-20010904/DTD/svg10.dtd">
<svg version="1.0" xmlns="http://www.w3.org/2000/svg"
 width="6225.000000pt" height="1705.000000pt" viewBox="0 0 6225.000000 1705.000000"
 preserveAspectRatio="xMidYMid meet">

<g transform="translate(0.000000,1705.000000) scale(0.100000,-0.100000)"
fill="white" stroke="none">
<path d="M7725 15130 c-1172 -36 -2295 -306 -3270 -785 -890 -437 -1485 -947
-1968 -1685 -568 -870 -915 -2032 -1031 -3460 -140 -1706 -14 -3543 355 -5210
165 -745 397 -1527 525 -1771 104 -197 338 -293 860 -354 303 -35 858 -35
1139 0 455 56 881 206 984 346 25 34 37 93 27 133 -22 89 -196 202 -529 345
-176 76 -204 94 -234 146 -28 50 -29 97 -3 275 45 323 119 608 275 1070 163
480 353 920 510 1180 119 196 247 345 335 390 l37 19 49 -33 c86 -59 88 -63
139 -286 57 -254 146 -609 186 -749 189 -658 301 -914 592 -1354 213 -323 353
-495 588 -721 230 -222 332 -283 534 -320 622 -115 1351 -123 1863 -20 272 54
441 129 517 228 106 140 -6 290 -340 451 -119 58 -361 156 -490 199 -95 31
-164 72 -198 118 -68 89 -191 627 -241 1053 -9 72 -21 211 -27 311 -17 281 -7
402 102 1214 10 80 22 219 26 311 l6 165 96 -13 c648 -86 1423 -119 2167 -94
192 6 361 14 377 17 l27 6 0 -529 c0 -291 5 -600 10 -688 20 -310 61 -544 125
-720 41 -113 620 -1321 757 -1579 213 -401 342 -605 418 -661 108 -79 268
-143 425 -169 428 -73 637 -91 1030 -91 375 0 511 13 819 76 304 62 386 99
515 235 l89 94 130 0 c212 0 436 28 572 72 242 77 378 258 303 403 -49 94
-168 170 -383 247 -186 66 -439 135 -602 162 l-37 7 120 352 c67 194 151 442
189 552 337 990 612 1637 985 2320 303 553 554 1279 659 1910 30 177 56 410
56 493 0 49 5 66 28 98 136 186 385 375 697 529 276 136 489 211 940 331 304
81 500 137 955 274 162 49 338 100 390 114 106 28 354 61 820 107 l315 32 645
-17 c725 -19 1077 -20 1290 -6 253 17 314 27 440 77 240 94 435 216 583 364
93 93 118 129 80 114 -46 -17 -132 -35 -225 -46 -216 -25 -762 40 -808 96 -28
34 2 40 235 43 232 4 372 -6 685 -49 139 -20 145 -20 158 -2 20 26 48 93 57
133 27 134 122 463 151 524 42 88 53 160 31 202 -35 66 -157 163 -390 310
-133 84 -592 431 -1142 863 -313 246 -370 295 -550 476 -246 248 -523 486
-665 573 -202 121 -968 409 -1416 531 -334 92 -344 93 -618 98 -137 3 -346 0
-465 -6 -558 -30 -1505 -108 -2201 -182 -157 -17 -386 -39 -510 -49 -124 -11
-326 -29 -450 -41 -196 -19 -238 -20 -325 -10 -138 17 -298 57 -592 150 -311
99 -367 113 -587 151 -336 56 -436 65 -766 65 -325 0 -373 -4 -635 -56 -185
-36 -785 -186 -1075 -269 -452 -129 -764 -171 -1265 -171 -547 1 -1003 62
-1504 202 -217 62 -276 98 -226 139 13 11 44 9 168 -8 307 -43 365 -47 742
-47 372 0 472 7 740 49 l80 12 -125 46 c-318 116 -804 264 -1176 357 -893 223
-1771 318 -2679 291z m12997 -1228 c6 -6 -44 -53 -134 -128 -170 -141 -287
-257 -311 -306 -22 -47 -21 -95 3 -167 24 -72 41 -103 146 -256 92 -135 114
-175 114 -205 0 -23 -33 -60 -54 -60 -25 0 -134 109 -184 185 -103 153 -157
351 -135 500 16 116 59 193 162 295 85 85 134 117 221 145 48 16 155 14 172
-3z m-16504 -705 c3 -12 -43 -63 -146 -162 -592 -571 -1060 -1317 -1485 -2370
-396 -978 -657 -1761 -850 -2545 -108 -437 -98 -412 -92 -215 17 546 98 1286
180 1630 58 246 181 610 308 915 92 220 354 784 428 920 166 305 385 611 672
940 259 296 913 915 960 908 12 -2 23 -11 25 -21z m19324 -432 c26 -9 67 -35
92 -57 39 -34 46 -45 46 -77 0 -46 -22 -78 -58 -85 -80 -17 -266 54 -358 137
-43 39 -46 45 -35 65 7 13 22 27 34 33 34 14 225 4 279 -16z m-3507 -2450 c0
-47 -204 -124 -479 -180 -221 -46 -298 -66 -442 -116 -248 -85 -497 -226 -674
-381 -110 -97 -198 -190 -394 -418 -199 -231 -401 -433 -529 -529 -77 -58
-146 -96 -315 -176 -424 -199 -458 -219 -553 -323 -78 -85 -160 -216 -254
-407 -93 -191 -136 -299 -272 -695 -133 -387 -186 -522 -346 -875 -300 -666
-386 -873 -481 -1164 -130 -394 -224 -871 -306 -1546 -17 -137 -37 -302 -45
-365 -14 -111 -19 -195 -16 -271 1 -34 9 -42 147 -148 80 -62 143 -115 141
-117 -2 -2 -66 9 -143 25 -76 16 -196 37 -266 47 l-128 17 5 36 c3 20 23 272
45 561 62 806 100 1189 141 1400 52 272 122 500 326 1060 85 234 221 625 303
870 195 590 314 888 470 1187 159 302 355 585 517 748 112 112 336 244 873
515 151 76 307 161 345 188 91 64 208 165 425 366 435 402 533 473 763 555
203 71 339 95 698 121 152 11 303 24 335 29 86 13 109 10 109 -14z m-15417
-1293 c9 -9 65 -87 124 -172 332 -481 708 -848 1202 -1174 562 -371 1271 -662
1851 -760 279 -46 349 -51 765 -51 580 1 836 30 1970 230 588 103 1143 185
1157 171 9 -9 -385 -196 -557 -264 -608 -241 -1238 -386 -1975 -454 -185 -17
-984 -17 -1150 0 -263 28 -512 102 -900 269 -1122 484 -1897 1119 -2461 2018
-48 77 -89 147 -91 156 -5 16 21 49 38 49 5 0 17 -8 27 -18z m-578 -4457 c37
-222 90 -932 90 -1208 0 -146 13 -286 33 -343 18 -54 50 -73 156 -90 104 -17
130 -28 210 -88 l55 -41 -90 -7 c-49 -4 -170 -19 -269 -33 -240 -33 -239 -33
-285 13 -78 78 -104 243 -97 617 8 366 48 737 129 1178 36 200 35 200 68 2z"/>
<path d="M26910 9410 l0 -4391 1803 4 c1970 3 1870 0 2240 62 539 91 966 261
1326 527 110 82 286 249 373 355 346 423 514 1004 478 1662 -30 544 -180 954
-490 1340 -296 367 -737 632 -1265 760 -44 10 -73 21 -65 24 8 3 62 15 120 27
231 48 489 157 665 281 115 82 262 229 344 344 75 107 178 314 220 444 35 106
73 279 92 421 21 147 18 576 -4 720 -24 154 -61 305 -104 420 -284 769 -1005
1234 -2103 1355 -268 29 -588 35 -2112 35 l-1518 0 0 -4390z m3420 3386 c521
-78 854 -253 1054 -555 256 -384 263 -1066 17 -1467 -160 -260 -436 -438 -816
-527 -300 -71 -463 -78 -1575 -75 l-915 3 -3 1323 -2 1323 1062 -4 c944 -3
1076 -5 1178 -21z m-30 -3596 c671 -57 1088 -255 1347 -640 199 -296 282 -782
218 -1282 -72 -558 -362 -943 -855 -1133 -104 -41 -283 -89 -410 -110 -242
-41 -343 -45 -1447 -45 l-1063 0 0 1610 0 1610 1048 0 c591 0 1097 -4 1162
-10z"/>
<path d="M36040 9410 l0 -4390 2830 0 2830 0 0 495 0 495 -2235 0 -2235 0 0
1595 0 1595 2090 0 2090 0 0 500 0 500 -2090 0 -2090 0 0 1300 0 1300 2180 0
2180 0 0 500 0 500 -2775 0 -2775 0 0 -4390z"/>
<path d="M46861 13783 c-13 -26 -3341 -8744 -3341 -8754 0 -5 268 -8 622 -7
l622 3 373 1050 c205 578 384 1083 399 1123 l26 72 1981 -2 1982 -3 252 -710
c139 -390 318 -896 399 -1122 l147 -413 613 0 c338 0 614 2 614 5 0 2 -748
1965 -1661 4362 -914 2397 -1666 4370 -1671 4386 l-10 27 -669 0 c-626 0 -669
-1 -678 -17z m1484 -3343 c439 -1185 800 -2163 803 -2172 4 -17 -78 -18 -1612
-18 -889 0 -1616 2 -1616 4 0 4 1565 4250 1600 4341 9 23 13 27 20 15 4 -8
367 -985 805 -2170z"/>
<path d="M54840 9411 l0 -4391 595 0 595 0 0 1856 0 1855 778 -4 c662 -3 794
-6 892 -21 671 -98 1012 -378 1461 -1201 48 -88 347 -683 665 -1322 l577
-1163 639 0 640 0 -130 253 c-71 138 -364 720 -651 1292 -286 572 -562 1114
-612 1205 -412 743 -831 1195 -1251 1350 l-33 12 45 15 c382 126 645 280 872
510 157 159 252 293 352 494 148 299 220 617 233 1029 14 475 -56 900 -207
1258 -314 742 -994 1182 -2029 1312 -330 42 -358 42 -1913 47 l-1518 5 0
-4391z m3135 3382 c390 -64 663 -189 883 -403 269 -260 402 -632 402 -1122 0
-827 -391 -1346 -1135 -1508 -243 -52 -259 -53 -1207 -57 l-888 -4 0 1561 0
1561 908 -4 c870 -3 912 -4 1037 -24z"/>
<path d="M33400 5765 l0 -745 620 0 620 0 0 745 0 745 -620 0 -620 0 0 -745z"/>
<path d="M41960 5765 l0 -745 615 0 615 0 0 745 0 745 -615 0 -615 0 0 -745z"/>
<path d="M52200 5765 l0 -745 620 0 620 0 0 745 0 745 -620 0 -620 0 0 -745z"/>
<path d="M27930 2960 l0 -950 110 0 110 0 0 950 0 950 -110 0 -110 0 0 -950z"/>
<path d="M31760 3543 l-1 -368 -21 30 c-40 56 -117 124 -169 150 -61 32 -163
55 -240 55 -227 1 -424 -143 -504 -365 -21 -58 -35 -78 -35 -49 0 37 -76 178
-126 233 -63 70 -150 126 -239 154 -92 29 -295 31 -394 3 -201 -55 -357 -202
-425 -401 -5 -15 -13 -3 -31 50 -30 85 -101 192 -164 245 -171 147 -475 171
-711 57 -99 -48 -208 -161 -260 -268 -65 -138 -75 -189 -75 -389 1 -163 3
-181 28 -255 55 -166 165 -297 309 -368 104 -52 176 -68 320 -74 172 -8 333
18 493 78 l55 20 0 105 0 104 -37 -19 c-133 -67 -289 -103 -448 -103 -177 0
-283 39 -374 137 -64 69 -121 212 -121 302 l0 33 483 0 484 0 12 -84 c33 -236
148 -405 342 -500 114 -55 211 -76 356 -76 135 0 264 21 396 63 l102 33 3 106
3 107 -73 -33 c-154 -71 -348 -104 -498 -85 -178 22 -289 98 -356 242 -23 51
-53 169 -54 210 0 16 28 17 488 15 l487 -3 7 -73 c27 -263 168 -477 366 -553
117 -44 306 -36 422 19 52 25 148 110 183 162 15 24 16 21 16 -77 l1 -103 110
0 110 0 0 950 0 950 -110 0 -110 0 0 -367z m-270 -335 c179 -56 279 -266 267
-558 -10 -243 -89 -392 -245 -463 -37 -17 -66 -21 -137 -21 -114 0 -173 24
-244 98 -101 107 -135 215 -135 426 0 155 13 226 59 327 76 166 258 246 435
191z m-2298 -21 c68 -33 131 -100 165 -173 26 -57 51 -179 39 -192 -10 -10
-787 -15 -796 -5 -12 13 17 132 46 192 47 95 146 174 251 201 21 5 83 8 138 7
86 -2 108 -6 157 -30z m1206 0 c60 -31 125 -94 152 -147 26 -51 50 -138 50
-181 0 -33 -3 -37 -31 -43 -17 -3 -197 -6 -400 -6 l-369 0 0 23 c0 36 28 133
51 178 25 51 90 122 136 150 71 44 140 59 253 56 91 -3 112 -7 158 -30z"/>
<path d="M32150 3770 l0 -140 110 0 110 0 0 140 0 140 -110 0 -110 0 0 -140z"/>
<path d="M37850 3543 l0 -366 -28 39 c-90 123 -236 194 -402 194 -262 0 -455
-168 -535 -465 l-14 -50 0 92 -1 93 -432 2 -433 3 -3 273 -2 272 455 0 455 0
0 100 0 100 -575 0 -575 0 0 -910 0 -910 585 0 585 0 0 105 0 105 -465 0 -465
0 0 330 0 330 433 0 432 0 -3 -152 c-4 -182 16 -302 70 -419 103 -220 264
-329 488 -329 176 0 296 56 395 185 l34 46 3 -98 3 -98 110 0 110 0 3 948 2
947 -115 0 -115 0 0 -367z m-242 -345 c104 -39 196 -164 227 -313 8 -40 15
-124 15 -196 0 -313 -124 -502 -346 -525 -196 -21 -352 112 -401 339 -35 165
-12 401 50 524 89 173 267 240 455 171z"/>
<path d="M44260 3770 l0 -140 110 0 110 0 0 140 0 140 -110 0 -110 0 0 -140z"/>
<path d="M45120 3899 c-73 -13 -157 -52 -202 -96 -68 -66 -108 -201 -108 -364
l0 -59 -105 0 -105 0 0 -85 0 -85 105 0 105 0 0 -600 0 -600 110 0 110 0 2
598 3 597 170 0 170 0 3 -597 2 -598 110 0 110 0 0 685 0 685 -287 0 -286 0 7
107 c12 196 51 235 235 237 l106 1 3 -47 3 -48 110 0 109 0 0 140 0 140 -212
-1 c-117 -1 -238 -5 -268 -10z"/>
<path d="M46990 3770 l0 -140 110 0 110 0 0 140 0 140 -110 0 -110 0 0 -140z"/>
<path d="M48830 2960 l0 -950 110 0 110 0 0 950 0 950 -110 0 -110 0 0 -950z"/>
<path d="M54720 2960 l0 -950 110 0 110 0 0 950 0 950 -110 0 -110 0 0 -950z"/>
<path d="M56940 3770 l0 -140 110 0 110 0 0 140 0 140 -110 0 -110 0 0 -140z"/>
<path d="M26620 2920 l0 -912 403 5 c446 5 483 9 614 71 157 75 242 193 264
366 31 250 -106 470 -330 530 l-44 12 65 22 c109 36 178 104 215 209 28 79 24
253 -6 330 -31 79 -115 168 -194 207 -128 62 -144 64 -584 68 l-403 3 0 -911z
m781 690 c125 -38 182 -117 183 -249 1 -131 -53 -211 -174 -257 -37 -15 -90
-18 -297 -22 l-253 -4 0 276 0 276 239 0 c210 0 247 -2 302 -20z m17 -744 c60
-16 127 -53 159 -88 49 -52 68 -115 68 -228 0 -121 -19 -177 -82 -242 -77 -79
-169 -98 -480 -98 l-223 0 0 335 0 335 253 0 c184 0 266 -4 305 -14z"/>
<path d="M41832 3778 c-11 -29 -167 -437 -346 -906 -179 -470 -326 -856 -326
-858 0 -3 57 -3 127 -2 l128 3 81 230 82 230 413 3 414 2 42 -117 c23 -65 61
-171 83 -235 l42 -118 124 0 c68 0 124 3 124 8 -1 4 -155 412 -344 907 l-343
900 -141 3 -140 3 -20 -53z m473 -1030 l25 -68 -335 0 c-220 0 -335 3 -335 10
0 11 318 878 327 894 4 6 178 -449 318 -836z"/>
<path d="M49940 2921 l0 -911 125 0 125 0 0 386 0 386 198 -4 c181 -3 201 -5
247 -26 106 -49 149 -110 329 -470 l136 -272 130 0 130 0 -20 40 -21 41 58
-30 c126 -63 191 -76 383 -76 157 0 186 3 280 27 58 15 128 36 155 47 l50 19
3 105 3 106 -74 -34 c-240 -111 -540 -119 -698 -19 -113 71 -174 181 -204 367
l-6 37 522 0 522 0 -7 122 c-13 229 -59 358 -171 477 -70 73 -142 118 -240
147 -75 23 -283 26 -365 5 -138 -35 -258 -111 -337 -215 -91 -120 -136 -253
-149 -439 l-7 -97 -33 49 c-43 64 -126 145 -165 161 l-30 13 68 33 c164 81
238 212 237 419 -2 266 -114 420 -359 491 -51 15 -117 18 -437 21 l-378 4 0
-910z m750 678 c67 -31 116 -79 144 -139 17 -37 21 -65 21 -151 0 -98 -2 -110
-30 -164 -19 -37 -46 -72 -73 -92 -73 -56 -123 -66 -354 -71 l-208 -4 0 327 0
326 223 -3 c215 -3 224 -4 277 -29z m1146 -394 c131 -40 223 -162 243 -322 l7
-61 -35 -6 c-20 -3 -202 -6 -405 -6 l-369 0 7 43 c27 173 126 299 271 346 75
25 211 27 281 6z"/>
<path d="M43720 3588 l0 -183 -117 0 c-192 0 -313 -52 -413 -177 l-45 -57 -3
105 -3 104 -109 0 -110 0 0 -685 0 -685 109 0 109 0 5 428 c3 348 7 437 20
479 39 131 96 207 195 255 64 32 72 33 182 32 88 0 122 -4 147 -17 l32 -17 3
-442 c4 -491 6 -504 71 -590 73 -95 158 -118 460 -125 l227 -6 0 687 0 686
-270 0 -270 0 0 195 0 195 -110 0 -110 0 0 -182z m538 -886 l2 -504 -102 4
c-142 4 -187 31 -208 124 -5 21 -10 229 -10 462 l0 423 158 -3 157 -3 3 -503z"/>
<path d="M56400 3575 l0 -195 -135 0 -135 0 0 -439 c0 -409 -1 -443 -20 -503
-51 -166 -190 -268 -365 -268 -177 0 -280 98 -305 292 -5 40 -10 263 -10 496
l0 422 -111 0 -111 0 4 -487 c4 -460 6 -492 25 -565 29 -103 66 -171 122 -228
84 -83 185 -120 331 -120 158 0 251 39 363 151 l77 78 0 -99 0 -100 110 0 110
0 2 598 3 597 23 3 22 3 0 -428 c0 -464 5 -514 54 -612 63 -123 184 -160 529
-161 l177 0 0 685 0 685 -270 0 -270 0 0 195 0 195 -110 0 -110 0 0 -195z
m538 -874 l2 -503 -102 4 c-149 6 -188 31 -208 137 -6 31 -10 230 -10 463 l0
409 158 -3 157 -3 3 -504z"/>
<path d="M33198 3395 c-109 -27 -196 -85 -269 -177 l-39 -50 0 106 0 106 -115
0 -115 0 0 -685 0 -685 115 0 114 0 3 458 c3 451 3 458 26 514 29 72 109 161
173 194 157 79 357 43 432 -77 57 -93 59 -112 64 -621 l5 -468 109 0 109 0 0
177 0 176 30 -60 c37 -73 123 -170 190 -213 145 -93 375 -102 529 -20 56 30
130 98 174 160 17 24 18 22 13 -100 -5 -146 -29 -236 -79 -302 -80 -105 -187
-150 -357 -150 -137 -1 -201 14 -377 89 -10 4 -13 -20 -13 -101 l0 -105 53
-15 c112 -32 135 -36 254 -47 208 -21 385 13 505 94 75 51 147 142 178 224 54
143 53 138 57 876 l4 687 -110 0 -110 0 -3 -102 -3 -102 -41 55 c-81 107 -203
167 -359 176 -226 13 -411 -97 -513 -306 l-38 -80 -22 72 c-41 142 -128 239
-257 287 -78 29 -234 36 -317 15z m1310 -197 c101 -37 187 -153 223 -298 9
-33 14 -110 14 -195 -1 -199 -34 -302 -129 -403 -23 -24 -63 -56 -91 -70 -45
-25 -60 -27 -160 -27 -97 0 -116 3 -160 25 -96 47 -161 133 -202 265 -14 47
-18 93 -18 215 0 166 11 223 61 322 85 168 273 236 462 166z"/>
<path d="M38596 3394 c-92 -22 -170 -70 -242 -147 -125 -135 -178 -296 -177
-537 0 -201 30 -321 116 -457 102 -165 293 -257 492 -238 154 15 264 74 349
188 l36 49 0 -99 c0 -171 -32 -273 -113 -360 -75 -81 -179 -117 -337 -116
-127 1 -197 18 -367 90 -10 4 -13 -20 -13 -101 l0 -105 52 -16 c173 -51 434
-66 573 -32 166 41 282 131 349 269 70 147 69 134 73 906 l4 692 -111 0 -110
0 0 -102 -1 -103 -21 30 c-40 56 -117 124 -169 150 -102 52 -262 68 -383 39z
m254 -175 c197 -32 304 -189 317 -464 12 -262 -67 -449 -222 -525 -44 -22 -63
-25 -160 -25 -101 0 -114 2 -163 28 -140 73 -207 208 -218 437 -7 139 11 253
54 343 65 137 155 198 317 216 6 0 39 -4 75 -10z"/>
<path d="M39995 3395 c-112 -25 -226 -86 -304 -164 -108 -108 -167 -230 -192
-402 -14 -101 -6 -290 16 -373 61 -223 226 -388 450 -451 80 -22 291 -31 397
-16 93 13 197 40 281 71 l57 21 0 104 0 103 -87 -38 c-273 -117 -567 -113
-722 10 -55 43 -77 71 -115 147 -24 49 -56 169 -56 214 0 19 12 19 516 19
l517 0 -6 143 c-6 161 -22 230 -74 330 -69 131 -181 227 -312 268 -89 28 -270
34 -366 14z m296 -195 c136 -51 219 -165 236 -321 l6 -56 -33 -6 c-18 -4 -198
-7 -401 -7 l-369 0 0 28 c0 38 27 126 55 182 23 46 101 127 146 150 95 52 266
66 360 30z"/>
<path d="M46325 3395 c-252 -47 -424 -206 -497 -460 -19 -68 -22 -104 -23
-240 0 -137 3 -171 23 -238 71 -246 237 -410 469 -461 146 -32 363 -15 514 41
l69 25 0 104 0 104 -48 -24 c-239 -121 -515 -104 -660 42 -179 178 -187 609
-16 795 89 97 189 137 338 137 106 0 225 -26 321 -69 l65 -30 0 104 0 103 -80
27 c-160 53 -328 68 -475 40z"/>
<path d="M47870 3403 c-88 -14 -193 -38 -261 -59 l-79 -25 0 -101 c0 -76 3
-99 13 -95 210 86 282 101 445 95 89 -3 130 -10 173 -26 113 -45 183 -137 195
-258 l7 -62 -259 -4 c-219 -4 -270 -8 -330 -25 -105 -30 -162 -61 -230 -128
-89 -87 -108 -142 -109 -306 0 -125 0 -125 38 -201 76 -156 209 -228 417 -228
182 0 298 47 406 163 l64 69 0 -101 0 -101 111 0 110 0 -4 473 c-4 517 -6 534
-67 662 -82 172 -270 266 -525 263 -49 0 -101 -3 -115 -5z m490 -758 c0 -140
-55 -290 -135 -370 -139 -139 -388 -152 -510 -27 -102 105 -81 318 38 386 90
51 167 63 425 65 l182 1 0 -55z"/>
<path d="M53775 3394 c-105 -23 -187 -67 -268 -142 -39 -37 -67 -58 -63 -47 4
11 21 55 37 98 l28 77 -117 0 -117 0 -203 -548 c-112 -301 -209 -560 -215
-576 -12 -26 -26 9 -227 548 l-214 576 -117 0 -116 0 256 -685 256 -685 151 0
150 0 149 398 c81 218 153 407 159 419 8 17 11 -18 11 -145 1 -194 14 -260 77
-390 98 -201 290 -312 537 -312 190 1 322 49 432 159 106 107 158 216 184 390
19 122 19 211 0 333 -40 269 -186 453 -415 523 -80 24 -267 29 -355 9z m292
-196 c109 -41 194 -151 234 -306 23 -92 26 -284 5 -384 -51 -236 -224 -371
-435 -337 -122 19 -218 94 -271 212 -45 102 -55 159 -54 322 0 136 3 157 27
228 52 151 135 240 257 278 54 16 177 10 237 -13z"/>
<path d="M57875 3404 c-245 -38 -417 -200 -486 -459 -18 -67 -22 -108 -22
-250 0 -142 4 -183 22 -250 34 -129 84 -220 165 -301 116 -116 243 -163 437
-164 282 0 486 143 573 402 37 110 50 221 43 373 -9 206 -62 354 -169 470
-109 119 -241 176 -423 180 -60 2 -123 1 -140 -1z m270 -216 c100 -52 173
-155 212 -298 24 -90 24 -310 -1 -399 -51 -188 -157 -296 -313 -321 -204 -33
-370 93 -428 325 -26 103 -24 304 4 410 38 141 125 252 234 295 77 30 222 24
292 -12z"/>
<path d="M59310 3399 c-89 -17 -183 -73 -259 -155 l-71 -76 0 106 0 106 -110
0 -110 0 0 -685 0 -685 110 0 110 0 0 403 c0 228 5 430 11 467 35 221 207 358
421 336 107 -11 177 -57 223 -146 42 -83 45 -128 45 -605 l0 -455 110 0 110 0
0 469 c0 517 -5 571 -59 687 -36 77 -103 151 -169 187 -93 50 -242 69 -362 46z"/>
<path d="M32150 2695 l0 -685 110 0 110 0 0 685 0 685 -110 0 -110 0 0 -685z"/>
<path d="M46990 2695 l0 -685 110 0 110 0 0 685 0 685 -110 0 -110 0 0 -685z"/>
</g>
</svg>
